<?xml version="1.0" standalone="no"?>
<!DOCTYPE svg PUBLIC "-//W3C//DTD SVG 20010904//EN"
 "http://www.w3.org/TR/2001/REC-SVG-20010904/DTD/svg10.dtd">
<svg version="1.0" xmlns="http://www.w3.org/2000/svg"
 width="700.000000pt" height="700.000000pt" viewBox="0 0 700.000000 700.000000"
 preserveAspectRatio="xMidYMid meet">
<metadata>
Created by potrace 1.11, written by Peter Selinger 2001-2013
</metadata>
<g transform="translate(0.000000,700.000000) scale(0.100000,-0.100000)"
fill="#000000" stroke="none">
<path d="M2375 5980 c-93 -24 -153 -59 -225 -131 -58 -58 -70 -76 -106 -149
-45 -94 -44 -23 -41 -2220 l2 -2075 23 -64 c42 -116 144 -234 244 -283 122
-60 77 -58 1223 -57 634 0 1070 4 1100 10 87 16 184 70 253 139 71 71 109 135
134 230 16 61 17 199 18 2120 0 2212 2 2096 -50 2211 -38 84 -135 185 -224
232 -103 54 -38 51 -1201 54 -1026 2 -1084 1 -1150 -17z m1479 -493 c23 -17
24 -73 2 -95 -15 -15 -51 -17 -356 -17 -369 0 -363 -1 -374 57 -3 17 2 33 15
47 19 21 27 21 357 21 259 0 342 -3 356 -13z m694 -501 c15 -8 38 -26 52 -41
l25 -26 0 -1392 c1 -766 -2 -1407 -6 -1426 -4 -19 -22 -48 -39 -65 l-30 -31
-1039 -2 c-1154 -3 -1076 -7 -1117 62 -18 29 -19 96 -19 1430 0 1121 3 1406
13 1431 7 17 30 40 50 52 l37 22 1023 0 c859 0 1027 -2 1050 -14z m-916 -3204
c236 -116 235 -452 -1 -565 -67 -32 -197 -31 -263 1 -105 52 -170 150 -176
267 -7 139 73 260 203 309 61 22 179 16 237 -12z"/>
</g>
</svg>
